  <svg
              width="135"
              height="76"
              viewBox="0 0 135 76"
              fill="none"
              xmlns="http://www.w3.org/2000/svg"
            >
              <path
                d="M3.56797 66.7481C4.29375 63.6104 2.99946 64.7401 2.64228 63.9826C3.29266 61.2191 5.42126 63.9399 5.75209 59.7304C5.58415 59.6085 5.40206 59.4784 5.22061 59.3441C4.35807 58.7055 2.79176 60.7531 2.72104 57.691C2.67058 55.5058 4.21062 56.5938 5.03214 56.2152C5.60179 55.9527 5.40938 54.9979 5.70786 54.1614C6.47234 53.1563 7.13894 53.0483 7.82368 53.0678C7.27405 52.9378 6.6923 53.3398 6.0437 52.4067C3.82177 51.9471 1.52188 53.3112 0 48.227C2.17427 46.7848 4.58551 47.3333 6.51928 44.1346C6.97193 43.3858 7.92203 43.5973 7.74644 41.7578C7.57178 39.9281 6.71422 41.0491 6.17591 40.7265C5.83537 40.5225 5.39887 40.9965 5.0479 39.5384C8.45017 33.9222 12.6159 32.6725 16.6386 29.6973C15.9251 28.1687 14.9884 29.5064 14.3394 28.5996C13.6521 27.6396 13.3303 26.6668 14.7004 26.1998C15.8558 24.2966 17.1288 25.5226 18.5506 24.1093C17.4116 23.7955 16.3791 24.5058 15.9231 22.3989C15.3881 19.9267 17.514 20.9196 16.9305 18.124C16.3972 14.0033 18.5888 16.2719 18.9085 13.8053C19.6467 12.4607 18.9278 10.6863 19.5064 9.08446C28.29 7.52916 36.8368 4.12656 45.61 1.22395C46.0823 1.97751 46.227 2.79876 46.5749 3.68293C47.1516 3.65542 47.6066 3.44706 48.1403 2.88848C48.5576 1.65615 49.0106 1.46881 49.6766 1.54422C50.4284 1.93636 51.0012 1.94781 51.7491 1.40881C54.3597 1.25865 56.7449 -0.0626156 59.3746 0.0218632C59.9549 0.0171315 60.3417 0.039278 60.923 0.0294033C61.2473 0.0186447 61.3772 0.0146549 61.7026 0C62.6846 0.029987 63.4807 -0.0434976 64.3418 1.20415C75.5341 0.345544 86.549 1.67925 97.5633 3.06608C101.365 3.54473 105.166 4.03394 109.172 4.59841C109.417 4.93792 109.456 5.19735 109.374 5.76462C107.914 7.14722 106.538 6.42984 105.18 6.53747C105.117 6.54242 104.592 5.34044 104.767 7.28588C104.325 7.79348 103.934 8.4358 103.989 9.1754C104.075 10.3566 104.711 10.2948 105.1 10.3714C107.786 10.8997 110.479 11.2852 113.365 11.7884C113.779 13.2234 113.195 13.4589 112.925 14.0781C114.179 13.4912 115.443 13.1099 116.808 14.5283C120.84 16.5353 124.746 18.4324 128.678 20.0274C130.423 20.7354 131.683 21.8361 131.759 26.4854C131.797 28.7978 132.543 30.5032 133.806 30.5259C133.403 32.2935 132.503 30.5991 132.109 31.9349C132.078 32.0385 132.105 32.2602 132.132 32.4015C132.161 32.5541 132.222 32.6767 132.289 33.1488C131.797 34.5128 131.279 34.966 130.729 33.6537C131.328 35.351 132.339 33.9091 133.136 35.2981C133.834 36.1224 134.854 34.8722 134.985 36.8909C135.078 38.3034 134.746 39.7584 133.673 39.8985C133.087 39.9749 132.661 42.3816 131.742 42.747C132.367 44.8663 133.374 44.4415 134.213 45.1562C133.443 47.3034 132.608 46.6236 131.639 46.2235C131.34 46.2808 131.19 46.2837 131.06 46.3862C130.842 46.5572 130.601 46.0693 130.404 46.5302C130.617 46.4008 130.829 46.467 131.107 46.8701C132.157 49.7535 132.361 51.4908 130.37 51.4465C129.531 51.4278 128.689 51.9664 127.551 52.3526C128.387 53.2141 128.983 53.8282 129.606 54.4706C127.913 57.8062 127.068 63.8842 123.639 61.0325C124.362 64.2217 125.553 62.8427 126.158 64.8852C124.788 65.6125 123.147 65.4595 123.016 69.9892C122.988 70.9574 121.647 70.9255 120.861 71.0536C116.649 71.7399 112.498 70.136 108.322 69.538C104.75 69.0266 101.183 68.256 97.6083 67.9975C89.6838 67.4246 81.6913 64.6036 73.8531 66.9676C66.7653 69.1053 59.5661 68.0154 52.5562 71.6329C50.5392 72.6738 48.3601 72.0716 46.277 72.6224C43.3586 73.394 40.4653 74.6201 37.551 75.4832C36.4902 75.7973 35.0914 77.2327 34.7065 73.331C34.3149 69.3617 35.857 69.6851 36.8837 68.9188C37.6141 68.3737 38.3387 67.7904 39.1793 66.9417C39.8066 65.2859 40.4905 65.4727 41.1834 65.4154C40.5852 65.4181 39.9689 65.693 39.2452 65.1065C31.8818 62.5162 25.0613 67.9022 17.8963 70.0981C17.0873 70.9112 16.3467 70.9188 15.5272 71.5056C13.628 71.6629 12.0997 71.2106 10.4316 68.9651C8.65776 66.5772 6.26273 68.0307 3.9373 68.3975C3.5538 68.0253 3.46709 67.5972 3.56797 66.7481Z"
                fill="#F8505A"
              />
              <text
                x="55"
                y="42"
                font-family="Arial" 
                fill="white"
                font-weight="bold"
                font-size="26px"
                >
                30
              </text>
            </svg>