 <svg
          width="30"
          height="30"
          viewBox="0 0 25 25"
          fill="none"
          xmlns="http://www.w3.org/2000/svg"
        >
          <path
            d="M7.29167 3.125H5.20833C4.05774 3.125 3.125 4.05774 3.125 5.20833V7.29167"
            stroke="#007b5e"
            stroke-width="1.5625"
            stroke-linecap="round"
            stroke-linejoin="round"
          />
          <path
            d="M17.707 3.125H19.7904C20.941 3.125 21.8737 4.05774 21.8737 5.20833V7.29167"
            stroke="#007b5e"
            stroke-width="1.5625"
            stroke-linecap="round"
            stroke-linejoin="round"
          />
          <path
            d="M7.29167 21.8749H5.20833C4.05774 21.8749 3.125 20.9422 3.125 19.7916V17.7083"
            stroke="#007b5e"
            stroke-width="1.5625"
            stroke-linecap="round"
            stroke-linejoin="round"
          />
          <path
            d="M17.707 21.8749H19.7904C20.941 21.8749 21.8737 20.9422 21.8737 19.7916V17.7083"
            stroke="#007b5e"
            stroke-width="1.5625"
            stroke-linecap="round"
            stroke-linejoin="round"
          />
          <path
            d="M15.938 14.186C15.938 14.6713 15.812 15.1287 15.56 15.558C15.3173 15.978 14.9533 16.328 14.468 16.608C13.992 16.8787 13.4273 17.0373 12.774 17.084V18.218H11.878V17.07C10.9447 16.986 10.1933 16.706 9.624 16.23C9.05467 15.7447 8.76067 15.0913 8.742 14.27H10.842C10.898 14.942 11.2433 15.348 11.878 15.488V12.814C11.206 12.646 10.6647 12.478 10.254 12.31C9.84333 12.142 9.48867 11.8713 9.19 11.498C8.89133 11.1247 8.742 10.616 8.742 9.972C8.742 9.16 9.03133 8.49733 9.61 7.984C10.198 7.47067 10.954 7.17667 11.878 7.102V5.968H12.774V7.102C13.67 7.17667 14.384 7.44733 14.916 7.914C15.4573 8.38067 15.7607 9.02467 15.826 9.846H13.712C13.684 9.57533 13.586 9.342 13.418 9.146C13.2593 8.94067 13.0447 8.796 12.774 8.712V11.358C13.474 11.5353 14.0247 11.708 14.426 11.876C14.8367 12.0347 15.1913 12.3007 15.49 12.674C15.7887 13.038 15.938 13.542 15.938 14.186ZM10.786 9.874C10.786 10.182 10.8793 10.434 11.066 10.63C11.2527 10.8167 11.5233 10.9707 11.878 11.092V8.67C11.542 8.71667 11.276 8.84267 11.08 9.048C10.884 9.25333 10.786 9.52867 10.786 9.874ZM12.774 15.516C13.1287 15.4507 13.404 15.306 13.6 15.082C13.8053 14.858 13.908 14.5873 13.908 14.27C13.908 13.962 13.81 13.7147 13.614 13.528C13.418 13.3413 13.138 13.1873 12.774 13.066V15.516Z"
            fill="#007b5e"
          />
        </svg>
